{"title":"BA Pass (2013) 1080p 1.46Gb Hindi ESubs DvDRip X264 mkv [xRG] -=","uid":8917741,"size":1569964979,"categoryP":"video","categoryS":"hd___movies","magnet":"?xt=urn:btih:2f0495dd98392cd63f6c35c5fe340f5813e195bf&amp;dn=BA+Pass+%282013%29+1080p+1.46Gb+Hindi+ESubs+DvDRip+X264+mkv+%5BxRG%5D+-%3D&amp;tr=udp%3A%2F%2Ftracker.openbittorrent.com%3A80&amp;tr=udp%3A%2F%2Fopen.demonii.com%3A1337&amp;tr=udp%3A%2F%2Ftracker.coppersurfer.tk%3A6969&amp;tr=udp%3A%2F%2Fexodus.desync.com%3A6969","seeders":5,"leechers":4,"uploader":"Team_xRG","files":1,"time":1379183461,"description":"[CENTER][B][SIZE=&quot;7&quot;][COLOR=&quot;Red&quot;]B.A. Pass (2013)[/COLOR][/SIZE][/B]\n\n[img]http://s6.postimg.org/udmnbjdgx/xrg.gif[/img]\n\n[img]http://roochster.com/wp-content/uploads/2013/08/b-a-pass-poster.jpg[/img]\n\n[code]http://www.imdb.com/title/tt2408040/[/code]\n\n[B][SIZE=&quot;5&quot;][COLOR=&quot;Red&quot;]Rip Code[/COLOR][/SIZE][/B]\n\n[code]\nGeneral\nUnique ID                                : 188678214869308810821601255767707829534 (0x8DF21A36095EA2F98F1283DC5B55451E)\nComplete name                            : E:Ddh Upload My RipsBA Pass (2013) 1080p 1.46Gb Hindi ESubs DvDRip X264 mkv [xRG] -=[ShareKing]=-.mkv\nFormat                                   : Matroska\nFormat version                           : Version 2\nFile size                                : 1.46 GiB\nDuration                                 : 1h 41mn\nOverall bit rate                         : 2 071 Kbps\nEncoded date                             : UTC 2013-09-14 15:45:57\nWriting application                      : mkvmerge v6.2.0 ('Promised Land') built on Apr 28 2013 12:22:01\nWriting library                          : libebml v1.3.0 + libmatroska v1.4.0\n\nVideo\nID                                       : 1\nFormat                                   : AVC\nFormat/Info                              : Advanced Video Codec\nFormat profile                           : &lt;a class=&quot;__cf_email__&quot; href=&quot;/cdn-cgi/l/email-protection&quot; data-cfemail=&quot;0941606e6149453d273b&quot;&gt;[email&amp;#160;protected]&lt;/a&gt;&lt;script cf-hash='f9e31' type=&quot;text/javascript&quot;&gt;\n/* &lt;![CDATA[ */!function(){try{var t=&quot;currentScript&quot;in document?document.currentScript:function(){for(var t=document.getElementsByTagName(&quot;script&quot;),e=t.length;e--;)if(t[e].getAttribute(&quot;cf-hash&quot;))return t[e]}();if(t&amp;&amp;t.previousSibling){var e,r,n,i,c=t.previousSibling,a=c.getAttribute(&quot;data-cfemail&quot;);if(a){for(e=&quot;&quot;,r=parseInt(a.substr(0,2),16),n=2;a.length-n;n+=2)i=parseInt(a.substr(n,2),16)^r,e+=String.fromCharCode(i);e=document.createTextNode(e),c.parentNode.replaceChild(e,c)}}}catch(u){}}();/* ]]&gt; */&lt;/script&gt;\nFormat settings, CABAC                   : Yes\nFormat settings, ReFrames                : 5 frames\nCodec ID                                 : V_MPEG4/ISO/AVC\nDuration                                 : 1h 41mn\nBit rate                                 : 1 686 Kbps\nWidth                                    : 1 980 pixels\nHeight                                   : 836 pixels\nDisplay aspect ratio                     : 2.35:1\nFrame rate mode                          : Constant\nFrame rate                               : 29.970 fps\nColor space                              : YUV\nChroma subsampling                       : 4:2:0\nBit depth                                : 8 bits\nScan type                                : Progressive\nBits/(Pixel*Frame)                       : 0.034\nStream size                              : 1.16 GiB (79%)\nTitle                                    :\nWriting library                          : x264 core 133 r2334 a3ac64b\nEncoding settings                        : cabac=1 // deblock=1:-2:-1 / analyse=0x3:0x113 / me=umh / subme=5 / psy=1 / \npsy_rd=1.00:0.00 // me_range=16 / chroma_me=1 / trellis=1 / 8x8dct=1 / cqm=0 / deadzone=21,11 / fast_pskip=1 / \nchroma_qp_offset=0 / threads=12 / lookahead_threads=3 / sliced_threads=0 / nr=0 / decimate=1 / interlaced=0 / bluray_compat=0 / \nconstrained_intra=0 / bframes=16 / b_pyramid=2 / b_adapt=1 / b_bias=0 / direct=3 / weightb=1 / open_gop=0 / weightp=2 / \nkeyint=300 / keyint_min=29 / scenecut=40 / intra_refresh=0 / rc_lookahead=40 / rc=2pass / mbtree=1 / bitrate=1686 / \nratetol=1.0 / qcomp=0.60 / qpmin=10 / qpmax=51 / qpstep=4 / cplxblur=20.0 / qblur=0.5 / ip_ratio=1.40 / aq=2:1.00\nLanguage                                 : English\nDefault                                  : Yes\nForced                                   : No\n\nAudio\nID                                       : 2\nFormat                                   : AC-3\nFormat/Info                              : Audio Coding 3\nMode extension                           : CM (complete main)\nFormat settings, Endianness              : Big\nCodec ID                                 : A_AC3\nDuration                                 : 1h 41mn\nBit rate mode                            : Constant\nBit rate                                 : 384 Kbps\nChannel(s)                               : 6 channels\nChannel positions                        : Front: L C R, Side: L R, LFE\nSampling rate                            : 48.0 KHz\nBit depth                                : 16 bits\nCompression mode                         : Lossy\nStream size                              : 278 MiB (19%)\nTitle                                    :\nLanguage                                 : Hindi\nDefault                                  : Yes\nForced                                   : No\n\nText\nID                                       : 3\nFormat                                   : UTF-8\nCodec ID                                 : S_TEXT/UTF8\nCodec ID/Info                            : UTF-8 Plain Text\nTitle                                    :\nLanguage                                 : English\nDefault                                  : Yes\nForced                                   : No\n[/code]\n\n[B][SIZE=&quot;5&quot;][COLOR=&quot;Red&quot;]##ScreenShoot##[/COLOR][/SIZE][/B]\n\n[IMG]http://s6.postimg.org/gobeoghrj/vlcsnap_2013_09_14_21h20m12s6.png[/IMG]\n[IMG]http://s6.postimg.org/r0xpajban/vlcsnap_2013_09_14_21h21m28s255.png[/IMG]\n[IMG]http://s6.postimg.org/hcfntnr3j/vlcsnap_2013_09_14_21h21m43s150.png[/IMG]\n[IMG]http://s6.postimg.org/3qjjeuyun/vlcsnap_2013_09_14_21h22m13s193.png[/IMG]\n[IMG]http://s6.postimg.org/l53rn4vzj/vlcsnap_2013_09_14_21h22m21s21.png[/IMG]\n[IMG]http://s6.postimg.org/9c5yiwzjj/vlcsnap_2013_09_14_21h23m59s234.png[/IMG]\n[IMG]http://s6.postimg.org/fkrachx4f/vlcsnap_2013_09_14_21h24m41s138.png[/IMG]\n\n[B][SIZE=&quot;7&quot;][COLOR=&quot;Red&quot;]xRG xCLUSIVE rIP[/COLOR][/SIZE][/B][/CENTER]","torrent":{"xt":"urn:btih:2f0495dd98392cd63f6c35c5fe340f5813e195bf","amp;dn":"BA+Pass+%282013%29+1080p+1.46Gb+Hindi+ESubs+DvDRip+X264+mkv+%5BxRG%5D+-%3D","amp;tr":["udp%3A%2F%2Ftracker.openbittorrent.com%3A80","udp%3A%2F%2Fopen.demonii.com%3A1337","udp%3A%2F%2Ftracker.coppersurfer.tk%3A6969","udp%3A%2F%2Fexodus.desync.com%3A6969"],"infoHash":"2f0495dd98392cd63f6c35c5fe340f5813e195bf","infoHashBuffer":{"type":"Buffer","data":[47,4,149,221,152,57,44,214,63,108,53,197,254,52,15,88,19,225,149,191]},"announce":[],"urlList":[]}}